<svg xmlns="http://www.w3.org/2000/svg" xmlns:v="https://svgstorm.com"
viewBox = "0 0 1667 613"
width="1667"
height="613">
<g fill="None" fill-opacity="0.0" stroke="#000000" stroke-opacity="0.00" stroke-width="0.3"><path d="
M 0.00 613.00 
L 1667.00 613.00
L 1667.00 0.00
L 0.00 0.00
L 0.00 613.00
M 223.00 176.00 
C 215.64 180.24 208.11 184.59 200.77 188.77 C 193.43 192.95 185.35 198.27 177.92 201.92 C 170.49 205.57 163.35 212.34 155.77 214.77 C 148.19 217.20 140.75 227.79 133.00 228.00
C 137.11 232.95 134.98 243.92 142.70 246.30 C 150.42 248.69 153.91 253.31 160.69 256.31 C 167.48 259.30 172.56 263.91 179.08 266.92 C 185.59 269.94 190.45 274.08 196.75 277.25 C 203.04 280.43 209.05 284.41 215.23 287.77 C 221.41 291.13 226.90 294.57 233.08 297.92 C 239.27 301.26 245.39 305.66 252.00 308.00
C 252.00 344.33 252.00 380.67 252.00 417.00
C 173.73 373.59 94.38 331.34 17.00 287.00
C 13.40 280.80 16.86 270.53 16.00 263.00 C 15.14 255.47 16.16 245.74 16.00 238.00 C 15.84 230.26 15.56 220.54 16.00 213.00 C 16.44 205.46 14.66 194.83 16.00 188.00 C 17.34 181.17 12.40 168.42 17.00 164.00
C 25.49 154.51 40.89 151.95 51.08 144.08 C 61.26 136.20 74.15 131.09 85.08 124.08 C 96.01 117.06 107.88 110.85 119.08 104.08 C 130.27 97.30 141.84 90.88 153.08 84.08 C 164.32 77.28 175.89 71.03 187.23 64.23 C 198.56 57.42 210.51 50.68 222.00 44.00
C 232.78 37.73 241.63 33.78 252.23 26.23 C 262.83 18.68 271.83 27.56 282.23 33.77 C 292.63 39.98 303.08 45.43 313.23 51.77 C 323.38 58.11 333.59 63.05 343.70 69.30 C 353.80 75.56 364.67 80.97 374.00 88.00
C 323.74 117.56 273.19 146.35 223.00 176.00
M 504.00 163.00 
C 509.00 169.93 503.46 182.97 505.00 192.00 C 506.54 201.03 504.28 213.36 505.00 223.00 C 505.72 232.64 504.69 243.06 505.00 253.00 C 505.31 262.94 504.85 273.93 505.00 284.00 C 505.15 294.07 504.94 303.86 505.00 314.00 C 505.06 324.14 504.97 334.83 505.00 345.00 C 505.03 355.17 504.99 364.79 505.00 375.00 C 505.01 385.21 504.99 395.73 505.00 406.00 C 505.01 416.27 504.99 426.71 505.00 437.00
C 491.52 443.16 479.28 452.17 466.00 459.00
C 456.47 464.54 446.67 470.38 437.00 476.00
C 421.56 484.97 406.32 495.52 390.00 503.00
C 391.45 412.95 390.94 322.40 391.00 232.00
C 384.80 232.71 376.60 226.99 370.77 232.77 C 364.94 238.55 358.74 238.44 352.77 242.77 C 346.80 247.10 340.77 249.09 334.77 252.77 C 328.77 256.46 322.76 259.41 316.77 262.77 C 310.78 266.13 305.24 269.09 299.30 272.30 C 293.37 275.52 287.28 279.42 281.25 282.25 C 275.22 285.09 269.36 290.05 263.25 292.25 C 257.15 294.46 250.82 286.05 244.92 284.08 C 239.01 282.11 233.56 277.18 227.75 274.25 C 221.95 271.31 215.06 268.15 209.31 264.69 C 203.55 261.24 197.28 257.94 191.31 254.69 C 185.33 251.45 179.50 247.64 173.31 244.70 C 167.11 241.75 161.73 236.78 155.00 235.00
C 164.37 226.65 177.39 220.66 188.75 213.75 C 200.10 206.83 212.15 200.44 223.70 193.70 C 235.24 186.95 246.62 179.98 258.23 173.23 C 269.84 166.48 282.23 159.66 293.75 152.75 C 305.26 145.83 317.09 139.28 328.70 132.70 C 340.30 126.11 351.61 118.49 363.23 112.23 C 374.85 105.97 387.41 93.52 399.23 101.77 C 411.05 110.02 422.03 114.77 433.75 122.25 C 445.47 129.74 456.95 135.16 468.70 142.30 C 480.44 149.45 492.04 156.24 504.00 163.00
M 1270.00 176.00 
C 1270.00 193.67 1269.99 211.33 1270.00 229.00
C 1250.87 224.64 1231.47 223.34 1212.00 220.00 C 1192.53 216.66 1170.43 216.37 1150.78 214.22 C 1131.13 212.07 1104.69 216.73 1086.99 216.99 C 1069.30 217.26 1046.58 233.28 1062.25 246.75 C 1077.92 260.22 1096.29 256.06 1114.01 261.99 C 1131.72 267.93 1151.22 269.09 1169.02 273.98 C 1186.82 278.86 1206.50 281.47 1224.01 285.99 C 1241.51 290.51 1256.71 296.01 1271.25 306.75 C 1285.78 317.50 1292.65 334.23 1293.00 352.00 C 1293.35 369.77 1287.84 388.14 1274.75 400.75 C 1261.66 413.37 1250.37 420.26 1232.78 425.78 C 1215.18 431.29 1194.86 434.26 1175.00 435.00 C 1155.14 435.74 1128.93 434.91 1109.00 434.00 C 1089.07 433.09 1068.70 430.01 1049.78 426.22 C 1030.86 422.43 1013.97 418.26 996.00 412.00
C 996.00 393.33 996.00 374.67 996.00 356.00
C 1013.28 360.42 1028.29 365.07 1046.01 368.99 C 1063.72 372.91 1081.15 376.40 1100.00 378.00 C 1118.85 379.60 1140.08 382.28 1160.00 381.00 C 1179.92 379.72 1196.00 379.77 1214.70 371.69 C 1233.39 363.62 1226.24 342.30 1207.78 340.22 C 1189.31 338.14 1173.55 332.38 1155.98 329.02 C 1138.40 325.67 1121.10 321.73 1103.99 318.01 C 1086.88 314.28 1068.39 310.42 1051.98 306.02 C 1035.57 301.63 1021.92 297.06 1008.75 286.25 C 995.59 275.43 989.64 259.64 989.00 243.00 C 988.36 226.36 993.97 209.08 1005.75 196.75 C 1017.53 184.42 1029.78 178.15 1046.02 173.02 C 1062.27 167.89 1079.87 163.47 1098.01 162.01 C 1116.15 160.55 1139.98 158.93 1159.00 160.00 C 1178.02 161.07 1198.45 162.57 1217.00 165.00 C 1235.55 167.43 1252.02 171.83 1270.00 176.00
M 911.00 293.00 
C 931.08 306.83 946.84 323.59 949.78 349.22 C 952.72 374.85 945.12 401.49 921.30 416.30 C 897.49 431.11 871.13 433.20 841.00 432.00 C 810.87 430.80 776.03 432.62 745.00 432.00 C 713.98 431.38 680.27 432.47 649.00 432.00
C 649.00 342.33 649.00 252.67 649.00 163.00
C 678.24 162.88 710.01 163.16 739.00 163.00 C 767.99 162.84 802.02 163.31 830.00 163.00 C 857.98 162.69 883.74 165.37 906.70 177.31 C 929.65 189.24 939.26 209.18 941.98 233.02 C 944.69 256.86 932.56 282.10 911.00 293.00
M 1482.00 375.00 
C 1489.48 363.63 1495.35 350.99 1501.92 338.92 C 1508.50 326.86 1515.17 314.83 1521.77 302.77 C 1528.37 290.71 1534.29 278.17 1541.30 266.30 C 1548.32 254.44 1553.51 241.55 1560.92 229.92 C 1568.32 218.29 1572.28 204.56 1580.31 193.31 C 1588.33 182.05 1589.38 162.65 1606.00 163.00 C 1622.62 163.35 1644.87 162.74 1662.00 163.00
C 1646.35 196.15 1628.00 229.37 1611.08 262.08 C 1594.15 294.78 1575.20 328.08 1558.70 360.70 C 1542.19 393.31 1524.84 434.99 1482.00 435.00 C 1439.16 435.01 1422.46 393.76 1405.70 361.30 C 1388.93 328.85 1370.60 295.10 1353.70 262.31 C 1336.79 229.51 1317.42 196.41 1302.00 163.00
C 1319.13 162.71 1341.38 163.39 1358.00 163.00 C 1374.62 162.61 1375.91 181.87 1383.77 193.23 C 1391.63 204.59 1396.13 217.92 1403.31 229.70 C 1410.48 241.47 1416.24 254.05 1422.92 266.08 C 1429.61 278.11 1436.15 290.17 1442.77 302.23 C 1449.40 314.29 1455.49 326.73 1462.30 338.70 C 1469.12 350.67 1474.89 363.18 1482.00 375.00
M 260.00 579.00 
C 247.68 576.48 237.46 564.54 225.77 559.23 C 214.08 553.92 202.46 545.29 190.92 539.08 C 179.39 532.86 167.86 525.08 156.31 518.70 C 144.75 512.31 133.28 504.72 121.77 498.23 C 110.26 491.74 98.41 484.70 87.25 477.75 C 76.10 470.79 63.07 465.17 52.75 457.25 C 42.44 449.32 26.66 446.64 18.00 437.00
C 13.62 432.12 16.62 423.86 16.00 417.00 C 15.38 410.14 16.26 401.10 16.00 394.00 C 15.74 386.90 16.03 379.09 16.00 372.00 C 15.97 364.91 15.85 355.81 16.00 349.00 C 16.15 342.19 15.54 332.99 16.00 327.00 C 16.46 321.01 14.07 308.18 18.00 308.00
C 27.29 307.57 35.79 319.35 44.75 322.25 C 53.71 325.16 62.75 333.29 71.70 337.30 C 80.64 341.31 89.12 347.45 98.08 351.92 C 107.04 356.39 116.08 362.38 125.08 366.92 C 134.08 371.46 142.27 377.07 151.25 381.75 C 160.22 386.43 169.41 391.73 178.25 396.75 C 187.08 401.78 195.92 406.12 204.75 411.25 C 213.57 416.39 222.79 421.20 231.70 426.30 C 240.60 431.40 249.91 436.44 259.00 441.00
C 261.31 433.27 271.49 431.17 269.00 421.00 C 266.51 410.83 270.20 400.08 269.00 390.00 C 267.80 379.92 269.63 369.91 269.00 360.00 C 268.37 350.09 269.51 338.59 269.00 329.00 C 268.49 319.41 267.09 308.06 275.70 304.70 C 284.30 301.33 287.53 297.45 295.08 294.08 C 302.62 290.70 307.98 286.43 315.08 283.08 C 322.17 279.72 327.47 275.85 334.25 272.25 C 341.02 268.64 347.95 265.33 354.69 261.69 C 361.44 258.06 367.74 253.46 375.00 251.00
C 374.99 269.31 375.01 287.69 375.00 306.00 C 374.99 324.31 375.02 343.83 375.00 362.00 C 374.99 380.17 375.03 399.19 375.00 417.00 C 374.97 434.81 375.07 455.99 375.00 473.00 C 374.93 490.01 379.37 511.72 364.77 518.77 C 350.17 525.82 343.25 532.43 330.25 539.25 C 317.26 546.08 307.19 553.26 294.92 559.92 C 282.65 566.57 271.59 575.14 260.00 579.00
M 688.00 542.00 
C 693.50 545.74 697.85 550.88 698.00 558.00 C 698.15 565.12 697.84 573.59 691.30 577.30 C 684.77 581.01 676.37 581.52 669.00 581.00 C 661.63 580.48 649.45 584.37 649.00 575.00 C 648.56 565.62 649.73 558.26 649.00 549.00 C 648.27 539.74 650.51 532.53 649.00 523.00 C 647.49 513.47 650.00 505.92 660.00 508.00 C 670.00 510.08 676.83 506.19 685.02 508.98 C 693.22 511.76 694.59 516.97 695.99 524.01 C 697.40 531.05 694.81 539.60 688.00 542.00
M 768.00 508.00 
C 766.04 525.47 770.62 535.81 768.00 554.00 C 765.38 572.19 784.15 571.89 799.00 570.00
C 800.93 587.09 782.34 580.83 768.93 580.07 C 755.51 579.32 755.99 562.08 757.00 550.00 C 758.01 537.92 756.24 520.56 757.00 508.00
C 760.67 508.00 764.33 508.00 768.00 508.00
M 892.00 508.00 
C 907.15 510.46 909.47 529.53 909.98 542.02 C 910.48 554.51 908.37 575.53 894.32 579.32 C 880.27 583.11 861.36 583.47 855.08 568.92 C 848.80 554.38 850.33 538.34 853.78 522.78 C 857.23 507.22 878.22 505.76 892.00 508.00
M 1017.00 527.00 
C 1013.33 527.00 1009.67 527.00 1006.00 527.00
C 1006.70 516.45 992.11 517.67 984.00 519.00 C 975.89 520.33 979.11 538.13 979.00 545.00 C 978.89 551.87 975.81 569.01 985.03 569.97 C 994.24 570.94 1006.12 572.11 1007.00 561.00
C 1025.98 556.98 1014.94 583.30 1002.93 580.93 C 990.91 578.55 973.10 586.67 968.03 571.97 C 962.95 557.27 970.30 543.99 967.00 528.00 C 963.70 512.01 977.33 506.84 991.00 508.00 C 1004.67 509.16 1020.93 507.60 1017.00 527.00
M 1088.00 508.00 
C 1088.00 518.33 1088.00 528.67 1088.00 539.00
C 1105.91 542.59 1105.46 518.72 1113.00 508.00
C 1117.00 508.00 1121.00 508.00 1125.00 508.00
C 1125.31 520.95 1110.26 531.45 1110.03 544.03 C 1109.79 556.60 1125.74 567.92 1125.00 581.00
C 1101.19 586.93 1111.27 544.21 1088.00 549.00
C 1089.05 558.30 1086.60 564.37 1088.00 574.00 C 1089.40 583.63 1075.08 583.56 1076.00 574.00 C 1076.92 564.43 1075.85 557.21 1076.00 548.00 C 1076.15 538.79 1076.52 531.21 1076.00 522.00 C 1075.48 512.79 1075.85 504.49 1088.00 508.00
M 1230.00 527.00 
C 1217.16 529.29 1219.80 519.68 1208.00 519.00 C 1196.20 518.32 1190.39 520.23 1191.00 532.00 C 1191.61 543.77 1191.94 551.50 1191.00 562.00 C 1190.06 572.50 1207.74 572.21 1213.00 570.00 C 1218.26 567.79 1226.89 554.39 1229.99 565.01 C 1233.09 575.63 1223.64 579.73 1215.93 580.93 C 1208.21 582.12 1195.97 581.66 1187.78 579.22 C 1179.59 576.78 1178.49 566.12 1179.00 558.00 C 1179.51 549.88 1179.02 535.89 1179.00 528.00 C 1178.98 520.11 1180.09 509.80 1189.23 508.23 C 1198.36 506.65 1209.88 507.98 1219.00 508.00 C 1228.12 508.02 1230.77 520.18 1230.00 527.00
M 1299.00 508.00 
C 1299.00 518.33 1299.00 528.67 1299.00 539.00
C 1308.67 539.00 1318.33 539.00 1328.00 539.00
C 1330.35 527.80 1320.41 503.10 1340.00 508.00
C 1340.00 532.33 1340.00 556.67 1340.00 581.00
C 1320.12 585.84 1330.53 560.36 1328.00 549.00
C 1318.33 549.00 1308.67 549.00 1299.00 549.00
C 1300.03 558.32 1297.63 564.36 1299.00 574.00 C 1300.37 583.64 1285.88 583.62 1287.00 574.00 C 1288.12 564.38 1286.76 557.23 1287.00 548.00 C 1287.24 538.77 1287.47 531.22 1287.00 522.00 C 1286.53 512.78 1286.81 504.50 1299.00 508.00
M 1458.00 581.00 
C 1445.76 584.80 1442.92 573.18 1442.00 564.00
C 1432.67 564.00 1423.33 564.00 1414.00 564.00
C 1412.85 570.67 1409.99 583.73 1401.00 581.00 C 1392.01 578.27 1401.65 567.35 1402.32 560.32 C 1403.00 553.29 1407.93 544.61 1409.32 537.32 C 1410.72 530.03 1414.80 521.33 1415.99 513.99 C 1417.18 506.66 1433.73 504.40 1437.75 510.25 C 1441.76 516.11 1442.18 526.06 1444.93 533.07 C 1447.68 540.09 1449.57 548.50 1451.93 556.07 C 1454.28 563.65 1457.35 572.80 1458.00 581.00
M 1527.00 508.00 
C 1527.75 519.14 1526.00 527.60 1527.00 539.00 C 1528.00 550.40 1525.13 558.78 1527.00 571.00 C 1528.87 583.22 1513.86 584.39 1515.00 572.00 C 1516.14 559.61 1514.41 551.57 1515.00 540.00 C 1515.59 528.43 1514.56 519.34 1515.00 508.00
C 1519.00 508.00 1523.00 508.00 1527.00 508.00
M 1625.00 508.00 
C 1630.67 508.92 1636.15 511.96 1639.30 517.70 C 1642.45 523.44 1642.37 531.82 1642.00 539.00 C 1641.63 546.18 1642.63 555.69 1642.00 563.00 C 1641.37 570.31 1645.65 580.90 1636.00 581.00 C 1626.35 581.09 1630.64 570.06 1630.00 563.00 C 1629.36 555.94 1630.37 545.73 1630.00 539.00 C 1629.63 532.27 1631.54 523.68 1624.75 520.25 C 1617.96 516.82 1612.07 517.81 1604.93 519.93 C 1597.79 522.04 1598.45 530.36 1598.00 537.00 C 1597.55 543.64 1599.39 554.12 1598.00 561.00 C 1596.61 567.88 1603.03 578.75 1593.99 580.99 C 1584.95 583.24 1585.28 572.39 1586.00 565.00 C 1586.72 557.61 1585.58 548.30 1586.00 541.00 C 1586.42 533.70 1585.05 525.23 1587.98 518.98 C 1590.90 512.72 1595.63 510.12 1602.01 509.01 C 1608.38 507.90 1618.14 506.89 1625.00 508.00 Z"/>
</g>
<g fill="None" fill-opacity="0.0" stroke="#334EC0" stroke-opacity="0.99" stroke-width="0.3"><path d="
M 222.00 44.00 
C 223.83 52.08 222.96 60.42 223.00 69.00 C 223.04 77.58 223.24 87.39 223.00 96.00 C 222.76 104.61 223.72 113.53 223.00 122.00 C 222.28 130.47 224.60 140.88 223.00 149.00 C 221.40 157.12 226.55 168.82 223.00 176.00
C 273.19 146.35 323.74 117.56 374.00 88.00
C 364.67 80.97 353.80 75.56 343.70 69.30 C 333.59 63.05 323.38 58.11 313.23 51.77 C 303.08 45.43 292.63 39.98 282.23 33.77 C 271.83 27.56 262.83 18.68 252.23 26.23 C 241.63 33.78 232.78 37.73 222.00 44.00 Z"/>
</g>
<g fill="None" fill-opacity="0.0" stroke="#335FC0" stroke-opacity="0.99" stroke-width="0.3"><path d="
M 17.00 164.00 
C 16.75 164.28 17.00 165.00 17.00 165.00
C 24.54 169.33 32.20 172.89 39.70 177.30 C 47.19 181.72 55.62 185.49 63.08 189.92 C 70.53 194.35 79.08 198.07 86.23 202.77 C 93.38 207.47 103.20 210.04 109.69 215.31 C 116.19 220.57 127.86 221.80 133.00 228.00
C 140.75 227.79 148.19 217.20 155.77 214.77 C 163.35 212.34 170.49 205.57 177.92 201.92 C 185.35 198.27 193.43 192.95 200.77 188.77 C 208.11 184.59 215.64 180.24 223.00 176.00
C 226.55 168.82 221.40 157.12 223.00 149.00 C 224.60 140.88 222.28 130.47 223.00 122.00 C 223.72 113.53 222.76 104.61 223.00 96.00 C 223.24 87.39 223.04 77.58 223.00 69.00 C 222.96 60.42 223.83 52.08 222.00 44.00
C 210.51 50.68 198.56 57.42 187.23 64.23 C 175.89 71.03 164.32 77.28 153.08 84.08 C 141.84 90.88 130.27 97.30 119.08 104.08 C 107.88 110.85 96.01 117.06 85.08 124.08 C 74.15 131.09 61.26 136.20 51.08 144.08 C 40.89 151.95 25.49 154.51 17.00 164.00 Z"/>
</g>
<g fill="None" fill-opacity="0.0" stroke="#332AC0" stroke-opacity="0.99" stroke-width="0.3"><path d="
M 391.00 232.00 
C 396.08 231.42 401.10 225.09 406.08 223.08 C 411.05 221.06 416.31 217.05 421.08 214.08 C 425.84 211.10 432.30 207.94 437.00 205.00
C 446.02 199.36 455.94 193.67 465.00 188.00
C 477.84 179.97 491.74 171.91 504.00 163.00
C 492.04 156.24 480.44 149.45 468.70 142.30 C 456.95 135.16 445.47 129.74 433.75 122.25 C 422.03 114.77 411.05 110.02 399.23 101.77 C 387.41 93.52 374.85 105.97 363.23 112.23 C 351.61 118.49 340.30 126.11 328.70 132.70 C 317.09 139.28 305.26 145.83 293.75 152.75 C 282.23 159.66 269.84 166.48 258.23 173.23 C 246.62 179.98 235.24 186.95 223.70 193.70 C 212.15 200.44 200.10 206.83 188.75 213.75 C 177.39 220.66 164.37 226.65 155.00 235.00
C 161.73 236.78 167.11 241.75 173.31 244.70 C 179.50 247.64 185.33 251.45 191.31 254.69 C 197.28 257.94 203.55 261.24 209.31 264.69 C 215.06 268.15 221.95 271.31 227.75 274.25 C 233.56 277.18 239.01 282.11 244.92 284.08 C 250.82 286.05 257.15 294.46 263.25 292.25 C 269.36 290.05 275.22 285.09 281.25 282.25 C 287.28 279.42 293.37 275.52 299.30 272.30 C 305.24 269.09 310.78 266.13 316.77 262.77 C 322.76 259.41 328.77 256.46 334.77 252.77 C 340.77 249.09 346.80 247.10 352.77 242.77 C 358.74 238.44 364.94 238.55 370.77 232.77 C 376.60 226.99 384.80 232.71 391.00 232.00 Z"/>
</g>
<g fill="None" fill-opacity="0.0" stroke="#2B33BF" stroke-opacity="0.98" stroke-width="0.3"><path d="
M 1270.00 176.00 
C 1252.02 171.83 1235.55 167.43 1217.00 165.00 C 1198.45 162.57 1178.02 161.07 1159.00 160.00 C 1139.98 158.93 1116.15 160.55 1098.01 162.01 C 1079.87 163.47 1062.27 167.89 1046.02 173.02 C 1029.78 178.15 1017.53 184.42 1005.75 196.75 C 993.97 209.08 988.36 226.36 989.00 243.00 C 989.64 259.64 995.59 275.43 1008.75 286.25 C 1021.92 297.06 1035.57 301.63 1051.98 306.02 C 1068.39 310.42 1086.88 314.28 1103.99 318.01 C 1121.10 321.73 1138.40 325.67 1155.98 329.02 C 1173.55 332.38 1189.31 338.14 1207.78 340.22 C 1226.24 342.30 1233.39 363.62 1214.70 371.69 C 1196.00 379.77 1179.92 379.72 1160.00 381.00 C 1140.08 382.28 1118.85 379.60 1100.00 378.00 C 1081.15 376.40 1063.72 372.91 1046.01 368.99 C 1028.29 365.07 1013.28 360.42 996.00 356.00
C 996.00 374.67 996.00 393.33 996.00 412.00
C 1013.97 418.26 1030.86 422.43 1049.78 426.22 C 1068.70 430.01 1089.07 433.09 1109.00 434.00 C 1128.93 434.91 1155.14 435.74 1175.00 435.00 C 1194.86 434.26 1215.18 431.29 1232.78 425.78 C 1250.37 420.26 1261.66 413.37 1274.75 400.75 C 1287.84 388.14 1293.35 369.77 1293.00 352.00 C 1292.65 334.23 1285.78 317.50 1271.25 306.75 C 1256.71 296.01 1241.51 290.51 1224.01 285.99 C 1206.50 281.47 1186.82 278.86 1169.02 273.98 C 1151.22 269.09 1131.72 267.93 1114.01 261.99 C 1096.29 256.06 1077.92 260.22 1062.25 246.75 C 1046.58 233.28 1069.30 217.26 1086.99 216.99 C 1104.69 216.73 1131.13 212.07 1150.78 214.22 C 1170.43 216.37 1192.53 216.66 1212.00 220.00 C 1231.47 223.34 1250.87 224.64 1270.00 229.00
C 1269.99 211.33 1270.00 193.67 1270.00 176.00 Z"/>
</g>
<g fill="None" fill-opacity="0.0" stroke="#3349C0" stroke-opacity="0.98" stroke-width="0.3"><path d="
M 465.00 188.00 
C 463.19 193.99 467.39 203.46 466.00 211.00 C 464.61 218.54 466.63 228.02 466.00 236.00 C 465.37 243.98 466.28 252.83 466.00 261.00 C 465.72 269.17 466.13 277.74 466.00 286.00 C 465.87 294.26 466.06 302.71 466.00 311.00 C 465.94 319.29 466.02 327.70 466.00 336.00 C 465.98 344.30 466.01 352.70 466.00 361.00 C 465.99 369.30 465.99 377.74 466.00 386.00 C 466.01 394.26 465.97 402.82 466.00 411.00 C 466.03 419.18 465.94 428.01 466.00 436.00 C 466.06 443.99 465.84 452.25 466.00 459.00
C 479.28 452.17 491.52 443.16 505.00 437.00
C 504.99 426.71 505.01 416.27 505.00 406.00 C 504.99 395.73 505.01 385.21 505.00 375.00 C 504.99 364.79 505.03 355.17 505.00 345.00 C 504.97 334.83 505.06 324.14 505.00 314.00 C 504.94 303.86 505.15 294.07 505.00 284.00 C 504.85 273.93 505.31 262.94 505.00 253.00 C 504.69 243.06 505.72 232.64 505.00 223.00 C 504.28 213.36 506.54 201.03 505.00 192.00 C 503.46 182.97 509.00 169.93 504.00 163.00
C 491.74 171.91 477.84 179.97 465.00 188.00 Z"/>
</g>
<g fill="None" fill-opacity="0.0" stroke="#2B33BF" stroke-opacity="0.98" stroke-width="0.3"><path d="
M 911.00 293.00 
C 932.56 282.10 944.69 256.86 941.98 233.02 C 939.26 209.18 929.65 189.24 906.70 177.31 C 883.74 165.37 857.98 162.69 830.00 163.00 C 802.02 163.31 767.99 162.84 739.00 163.00 C 710.01 163.16 678.24 162.88 649.00 163.00
C 649.00 252.67 649.00 342.33 649.00 432.00
C 680.27 432.47 713.98 431.38 745.00 432.00 C 776.03 432.62 810.87 430.80 841.00 432.00 C 871.13 433.20 897.49 431.11 921.30 416.30 C 945.12 401.49 952.72 374.85 949.78 349.22 C 946.84 323.59 931.08 306.83 911.00 293.00
M 708.00 271.00 
C 708.00 252.00 708.00 233.00 708.00 214.00
C 729.98 213.70 753.14 214.40 775.00 214.00 C 796.86 213.60 821.67 214.76 843.00 214.00 C 864.33 213.24 880.15 218.42 882.00 242.00 C 883.85 265.58 865.02 273.91 843.00 271.00 C 820.98 268.09 798.28 272.50 776.00 271.00 C 753.72 269.50 730.37 272.12 708.00 271.00
M 708.00 382.00 
C 708.00 361.67 708.00 341.33 708.00 321.00
C 730.90 320.49 756.36 321.68 779.00 321.00 C 801.64 320.32 828.30 322.30 850.00 321.00 C 871.70 319.70 889.35 327.82 890.99 351.01 C 892.63 374.19 873.06 384.45 851.00 382.00 C 828.94 379.55 802.94 383.26 780.00 382.00 C 757.06 380.74 731.21 382.95 708.00 382.00 Z"/>
</g>
<g fill="None" fill-opacity="0.0" stroke="#2B34C0" stroke-opacity="0.98" stroke-width="0.3"><path d="
M 1482.00 375.00 
C 1474.89 363.18 1469.12 350.67 1462.30 338.70 C 1455.49 326.73 1449.40 314.29 1442.77 302.23 C 1436.15 290.17 1429.61 278.11 1422.92 266.08 C 1416.24 254.05 1410.48 241.47 1403.31 229.70 C 1396.13 217.92 1391.63 204.59 1383.77 193.23 C 1375.91 181.87 1374.62 162.61 1358.00 163.00 C 1341.38 163.39 1319.13 162.71 1302.00 163.00
C 1317.42 196.41 1336.79 229.51 1353.70 262.31 C 1370.60 295.10 1388.93 328.85 1405.70 361.30 C 1422.46 393.76 1439.16 435.01 1482.00 435.00 C 1524.84 434.99 1542.19 393.31 1558.70 360.70 C 1575.20 328.08 1594.15 294.78 1611.08 262.08 C 1628.00 229.37 1646.35 196.15 1662.00 163.00
C 1644.87 162.74 1622.62 163.35 1606.00 163.00 C 1589.38 162.65 1588.33 182.05 1580.31 193.31 C 1572.28 204.56 1568.32 218.29 1560.92 229.92 C 1553.51 241.55 1548.32 254.44 1541.30 266.30 C 1534.29 278.17 1528.37 290.71 1521.77 302.77 C 1515.17 314.83 1508.50 326.86 1501.92 338.92 C 1495.35 350.99 1489.48 363.63 1482.00 375.00 Z"/>
</g>
<g fill="None" fill-opacity="0.0" stroke="#343078" stroke-opacity="0.25" stroke-width="0.3"><path d="
M 17.00 287.00 
C 13.59 278.22 18.48 266.57 17.00 257.00 C 15.52 247.43 17.67 235.89 17.00 226.00 C 16.33 216.11 17.24 206.05 17.00 196.00 C 16.76 185.95 17.00 175.12 17.00 165.00
C 17.00 165.00 16.75 164.28 17.00 164.00
C 12.40 168.42 17.34 181.17 16.00 188.00 C 14.66 194.83 16.44 205.46 16.00 213.00 C 15.56 220.54 15.84 230.26 16.00 238.00 C 16.16 245.74 15.14 255.47 16.00 263.00 C 16.86 270.53 13.40 280.80 17.00 287.00 Z"/>
</g>
<g fill="None" fill-opacity="0.0" stroke="#313178" stroke-opacity="0.99" stroke-width="0.3"><path d="
M 17.00 287.00 
C 94.38 331.34 173.73 373.59 252.00 417.00
C 252.00 380.67 252.00 344.33 252.00 308.00
C 245.39 305.66 239.27 301.26 233.08 297.92 C 226.90 294.57 221.41 291.13 215.23 287.77 C 209.05 284.41 203.04 280.43 196.75 277.25 C 190.45 274.08 185.59 269.94 179.08 266.92 C 172.56 263.91 167.48 259.30 160.69 256.31 C 153.91 253.31 150.42 248.69 142.70 246.30 C 134.98 243.92 137.11 232.95 133.00 228.00
C 127.86 221.80 116.19 220.57 109.69 215.31 C 103.20 210.04 93.38 207.47 86.23 202.77 C 79.08 198.07 70.53 194.35 63.08 189.92 C 55.62 185.49 47.19 181.72 39.70 177.30 C 32.20 172.89 24.54 169.33 17.00 165.00
C 17.00 175.12 16.76 185.95 17.00 196.00 C 17.24 206.05 16.33 216.11 17.00 226.00 C 17.67 235.89 15.52 247.43 17.00 257.00 C 18.48 266.57 13.59 278.22 17.00 287.00 Z"/>
</g>
<g fill="None" fill-opacity="0.0" stroke="#3357C0" stroke-opacity="1.00" stroke-width="0.3"><path d="
M 437.00 205.00 
C 433.18 214.85 438.72 228.34 437.00 239.00 C 435.28 249.66 437.78 261.97 437.00 273.00 C 436.22 284.03 437.35 295.81 437.00 307.00 C 436.65 318.19 437.16 329.75 437.00 341.00 C 436.84 352.25 437.06 363.74 437.00 375.00 C 436.94 386.26 437.02 397.78 437.00 409.00 C 436.98 420.22 436.98 431.90 437.00 443.00 C 437.02 454.10 436.93 466.08 437.00 476.00
C 446.67 470.38 456.47 464.54 466.00 459.00
C 465.84 452.25 466.06 443.99 466.00 436.00 C 465.94 428.01 466.03 419.18 466.00 411.00 C 465.97 402.82 466.01 394.26 466.00 386.00 C 465.99 377.74 465.99 369.30 466.00 361.00 C 466.01 352.70 465.98 344.30 466.00 336.00 C 466.02 327.70 465.94 319.29 466.00 311.00 C 466.06 302.71 465.87 294.26 466.00 286.00 C 466.13 277.74 465.72 269.17 466.00 261.00 C 466.28 252.83 465.37 243.98 466.00 236.00 C 466.63 228.02 464.61 218.54 466.00 211.00 C 467.39 203.46 463.19 193.99 465.00 188.00
C 455.94 193.67 446.02 199.36 437.00 205.00 Z"/>
</g>
<g fill="None" fill-opacity="0.0" stroke="#3366C0" stroke-opacity="1.00" stroke-width="0.3"><path d="
M 391.00 232.00 
C 390.94 322.40 391.45 412.95 390.00 503.00
C 406.32 495.52 421.56 484.97 437.00 476.00
C 436.93 466.08 437.02 454.10 437.00 443.00 C 436.98 431.90 436.98 420.22 437.00 409.00 C 437.02 397.78 436.94 386.26 437.00 375.00 C 437.06 363.74 436.84 352.25 437.00 341.00 C 437.16 329.75 436.65 318.19 437.00 307.00 C 437.35 295.81 436.22 284.03 437.00 273.00 C 437.78 261.97 435.28 249.66 437.00 239.00 C 438.72 228.34 433.18 214.85 437.00 205.00
C 432.30 207.94 425.84 211.10 421.08 214.08 C 416.31 217.05 411.05 221.06 406.08 223.08 C 401.10 225.09 396.08 231.42 391.00 232.00 Z"/>
</g>
<g fill="None" fill-opacity="0.0" stroke="#000000" stroke-opacity="0.00" stroke-width="0.3"><path d="
M 708.00 271.00 
C 730.37 272.12 753.72 269.50 776.00 271.00 C 798.28 272.50 820.98 268.09 843.00 271.00 C 865.02 273.91 883.85 265.58 882.00 242.00 C 880.15 218.42 864.33 213.24 843.00 214.00 C 821.67 214.76 796.86 213.60 775.00 214.00 C 753.14 214.40 729.98 213.70 708.00 214.00
C 708.00 233.00 708.00 252.00 708.00 271.00 Z"/>
</g>
<g fill="None" fill-opacity="0.0" stroke="#332AC0" stroke-opacity="0.98" stroke-width="0.3"><path d="
M 259.00 441.00 
C 257.17 447.11 259.96 454.63 259.00 461.00 C 258.04 467.37 259.29 473.92 259.93 480.07 C 260.56 486.23 259.71 493.73 260.00 500.00 C 260.29 506.27 259.75 513.88 260.00 520.00 C 260.25 526.12 259.62 534.39 260.00 540.00 C 260.38 545.61 262.46 554.01 261.00 559.00 C 259.54 563.99 264.16 576.57 260.00 579.00
C 271.59 575.14 282.65 566.57 294.92 559.92 C 307.19 553.26 317.26 546.08 330.25 539.25 C 343.25 532.43 350.17 525.82 364.77 518.77 C 379.37 511.72 374.93 490.01 375.00 473.00 C 375.07 455.99 374.97 434.81 375.00 417.00 C 375.03 399.19 374.99 380.17 375.00 362.00 C 375.02 343.83 374.99 324.31 375.00 306.00 C 375.01 287.69 374.99 269.31 375.00 251.00
C 367.74 253.46 361.44 258.06 354.69 261.69 C 347.95 265.33 341.02 268.64 334.25 272.25 C 327.47 275.85 322.17 279.72 315.08 283.08 C 307.98 286.43 302.62 290.70 295.08 294.08 C 287.53 297.45 284.30 301.33 275.70 304.70 C 267.09 308.06 268.49 319.41 269.00 329.00 C 269.51 338.59 268.37 350.09 269.00 360.00 C 269.63 369.91 267.80 379.92 269.00 390.00 C 270.20 400.08 266.51 410.83 269.00 421.00 C 271.49 431.17 261.31 433.27 259.00 441.00 Z"/>
</g>
<g fill="None" fill-opacity="0.0" stroke="#34249D" stroke-opacity="0.44" stroke-width="0.3"><path d="
M 18.00 437.00 
C 14.52 431.55 17.81 423.54 17.00 417.00 C 16.19 410.46 17.28 401.84 17.00 395.00 C 16.72 388.16 16.92 379.82 17.00 373.00 C 17.08 366.18 16.52 357.44 17.00 351.00 C 17.48 344.56 15.79 334.48 17.00 329.00 C 18.21 323.52 13.79 310.58 18.00 308.00
C 14.07 308.18 16.46 321.01 16.00 327.00 C 15.54 332.99 16.15 342.19 16.00 349.00 C 15.85 355.81 15.97 364.91 16.00 372.00 C 16.03 379.09 15.74 386.90 16.00 394.00 C 16.26 401.10 15.38 410.14 16.00 417.00 C 16.62 423.86 13.62 432.12 18.00 437.00 Z"/>
</g>
<g fill="None" fill-opacity="0.0" stroke="#322F7D" stroke-opacity="0.99" stroke-width="0.3"><path d="
M 18.00 437.00 
C 26.66 446.64 42.44 449.32 52.75 457.25 C 63.07 465.17 76.10 470.79 87.25 477.75 C 98.41 484.70 110.26 491.74 121.77 498.23 C 133.28 504.72 144.75 512.31 156.31 518.70 C 167.86 525.08 179.39 532.86 190.92 539.08 C 202.46 545.29 214.08 553.92 225.77 559.23 C 237.46 564.54 247.68 576.48 260.00 579.00
C 264.16 576.57 259.54 563.99 261.00 559.00 C 262.46 554.01 260.38 545.61 260.00 540.00 C 259.62 534.39 260.25 526.12 260.00 520.00 C 259.75 513.88 260.29 506.27 260.00 500.00 C 259.71 493.73 260.56 486.23 259.93 480.07 C 259.29 473.92 258.04 467.37 259.00 461.00 C 259.96 454.63 257.17 447.11 259.00 441.00
C 249.91 436.44 240.60 431.40 231.70 426.30 C 222.79 421.20 213.57 416.39 204.75 411.25 C 195.92 406.12 187.08 401.78 178.25 396.75 C 169.41 391.73 160.22 386.43 151.25 381.75 C 142.27 377.07 134.08 371.46 125.08 366.92 C 116.08 362.38 107.04 356.39 98.08 351.92 C 89.12 347.45 80.64 341.31 71.70 337.30 C 62.75 333.29 53.71 325.16 44.75 322.25 C 35.79 319.35 27.29 307.57 18.00 308.00
C 13.79 310.58 18.21 323.52 17.00 329.00 C 15.79 334.48 17.48 344.56 17.00 351.00 C 16.52 357.44 17.08 366.18 17.00 373.00 C 16.92 379.82 16.72 388.16 17.00 395.00 C 17.28 401.84 16.19 410.46 17.00 417.00 C 17.81 423.54 14.52 431.55 18.00 437.00 Z"/>
</g>
<g fill="None" fill-opacity="0.0" stroke="#000000" stroke-opacity="0.00" stroke-width="0.3"><path d="
M 708.00 382.00 
C 731.21 382.95 757.06 380.74 780.00 382.00 C 802.94 383.26 828.94 379.55 851.00 382.00 C 873.06 384.45 892.63 374.19 890.99 351.01 C 889.35 327.82 871.70 319.70 850.00 321.00 C 828.30 322.30 801.64 320.32 779.00 321.00 C 756.36 321.68 730.90 320.49 708.00 321.00
C 708.00 341.33 708.00 361.67 708.00 382.00 Z"/>
</g>
<g fill="None" fill-opacity="0.0" stroke="#2B33BF" stroke-opacity="0.93" stroke-width="0.3"><path d="
M 688.00 542.00 
C 694.81 539.60 697.40 531.05 695.99 524.01 C 694.59 516.97 693.22 511.76 685.02 508.98 C 676.83 506.19 670.00 510.08 660.00 508.00 C 650.00 505.92 647.49 513.47 649.00 523.00 C 650.51 532.53 648.27 539.74 649.00 549.00 C 649.73 558.26 648.56 565.62 649.00 575.00 C 649.45 584.37 661.63 580.48 669.00 581.00 C 676.37 581.52 684.77 581.01 691.30 577.30 C 697.84 573.59 698.15 565.12 698.00 558.00 C 697.85 550.88 693.50 545.74 688.00 542.00
M 661.00 539.00 
C 661.00 532.33 661.00 525.67 661.00 519.00
C 669.96 519.13 684.90 515.99 684.65 528.69 C 684.39 541.40 670.30 539.07 661.00 539.00
M 661.00 570.00 
C 661.00 562.67 661.00 555.33 661.00 548.00
C 670.69 548.11 686.70 545.04 686.99 559.01 C 687.28 572.98 670.78 570.01 661.00 570.00 Z"/>
</g>
<g fill="None" fill-opacity="0.0" stroke="#2B34BF" stroke-opacity="0.95" stroke-width="0.3"><path d="
M 768.00 508.00 
C 764.33 508.00 760.67 508.00 757.00 508.00
C 756.24 520.56 758.01 537.92 757.00 550.00 C 755.99 562.08 755.51 579.32 768.93 580.07 C 782.34 580.83 800.93 587.09 799.00 570.00
C 784.15 571.89 765.38 572.19 768.00 554.00 C 770.62 535.81 766.04 525.47 768.00 508.00 Z"/>
</g>
<g fill="None" fill-opacity="0.0" stroke="#2B33BF" stroke-opacity="0.93" stroke-width="0.3"><path d="
M 892.00 508.00 
C 878.22 505.76 857.23 507.22 853.78 522.78 C 850.33 538.34 848.80 554.38 855.08 568.92 C 861.36 583.47 880.27 583.11 894.32 579.32 C 908.37 575.53 910.48 554.51 909.98 542.02 C 909.47 529.53 907.15 510.46 892.00 508.00
M 885.00 518.00 
C 899.06 520.28 897.09 535.92 898.00 548.00 C 898.91 560.08 891.00 574.11 876.00 570.00 C 861.00 565.89 863.83 553.63 863.00 540.00 C 862.17 526.37 869.93 515.55 885.00 518.00 Z"/>
</g>
<g fill="None" fill-opacity="0.0" stroke="#2B33BF" stroke-opacity="0.92" stroke-width="0.3"><path d="
M 1017.00 527.00 
C 1020.93 507.60 1004.67 509.16 991.00 508.00 C 977.33 506.84 963.70 512.01 967.00 528.00 C 970.30 543.99 962.95 557.27 968.03 571.97 C 973.10 586.67 990.91 578.55 1002.93 580.93 C 1014.94 583.30 1025.98 556.98 1007.00 561.00
C 1006.12 572.11 994.24 570.94 985.03 569.97 C 975.81 569.01 978.89 551.87 979.00 545.00 C 979.11 538.13 975.89 520.33 984.00 519.00 C 992.11 517.67 1006.70 516.45 1006.00 527.00
C 1009.67 527.00 1013.33 527.00 1017.00 527.00 Z"/>
</g>
<g fill="None" fill-opacity="0.0" stroke="#2B34BF" stroke-opacity="0.92" stroke-width="0.3"><path d="
M 1088.00 508.00 
C 1075.85 504.49 1075.48 512.79 1076.00 522.00 C 1076.52 531.21 1076.15 538.79 1076.00 548.00 C 1075.85 557.21 1076.92 564.43 1076.00 574.00 C 1075.08 583.56 1089.40 583.63 1088.00 574.00 C 1086.60 564.37 1089.05 558.30 1088.00 549.00
C 1111.27 544.21 1101.19 586.93 1125.00 581.00
C 1125.74 567.92 1109.79 556.60 1110.03 544.03 C 1110.26 531.45 1125.31 520.95 1125.00 508.00
C 1121.00 508.00 1117.00 508.00 1113.00 508.00
C 1105.46 518.72 1105.91 542.59 1088.00 539.00
C 1088.00 528.67 1088.00 518.33 1088.00 508.00 Z"/>
</g>
<g fill="None" fill-opacity="0.0" stroke="#2B33BF" stroke-opacity="0.91" stroke-width="0.3"><path d="
M 1230.00 527.00 
C 1230.77 520.18 1228.12 508.02 1219.00 508.00 C 1209.88 507.98 1198.36 506.65 1189.23 508.23 C 1180.09 509.80 1178.98 520.11 1179.00 528.00 C 1179.02 535.89 1179.51 549.88 1179.00 558.00 C 1178.49 566.12 1179.59 576.78 1187.78 579.22 C 1195.97 581.66 1208.21 582.12 1215.93 580.93 C 1223.64 579.73 1233.09 575.63 1229.99 565.01 C 1226.89 554.39 1218.26 567.79 1213.00 570.00 C 1207.74 572.21 1190.06 572.50 1191.00 562.00 C 1191.94 551.50 1191.61 543.77 1191.00 532.00 C 1190.39 520.23 1196.20 518.32 1208.00 519.00 C 1219.80 519.68 1217.16 529.29 1230.00 527.00 Z"/>
</g>
<g fill="None" fill-opacity="0.0" stroke="#2B33BF" stroke-opacity="0.94" stroke-width="0.3"><path d="
M 1299.00 508.00 
C 1286.81 504.50 1286.53 512.78 1287.00 522.00 C 1287.47 531.22 1287.24 538.77 1287.00 548.00 C 1286.76 557.23 1288.12 564.38 1287.00 574.00 C 1285.88 583.62 1300.37 583.64 1299.00 574.00 C 1297.63 564.36 1300.03 558.32 1299.00 549.00
C 1308.67 549.00 1318.33 549.00 1328.00 549.00
C 1330.53 560.36 1320.12 585.84 1340.00 581.00
C 1340.00 556.67 1340.00 532.33 1340.00 508.00
C 1320.41 503.10 1330.35 527.80 1328.00 539.00
C 1318.33 539.00 1308.67 539.00 1299.00 539.00
C 1299.00 528.67 1299.00 518.33 1299.00 508.00 Z"/>
</g>
<g fill="None" fill-opacity="0.0" stroke="#2B34BF" stroke-opacity="0.93" stroke-width="0.3"><path d="
M 1458.00 581.00 
C 1457.35 572.80 1454.28 563.65 1451.93 556.07 C 1449.57 548.50 1447.68 540.09 1444.93 533.07 C 1442.18 526.06 1441.76 516.11 1437.75 510.25 C 1433.73 504.40 1417.18 506.66 1415.99 513.99 C 1414.80 521.33 1410.72 530.03 1409.32 537.32 C 1407.93 544.61 1403.00 553.29 1402.32 560.32 C 1401.65 567.35 1392.01 578.27 1401.00 581.00 C 1409.99 583.73 1412.85 570.67 1414.00 564.00
C 1423.33 564.00 1432.67 564.00 1442.00 564.00
C 1442.92 573.18 1445.76 584.80 1458.00 581.00
M 1428.00 519.00 
C 1431.74 530.55 1435.47 542.09 1438.00 554.00
C 1431.00 554.00 1424.00 554.00 1417.00 554.00
C 1420.75 542.46 1423.02 529.76 1428.00 519.00 Z"/>
</g>
<g fill="None" fill-opacity="0.0" stroke="#2B33BF" stroke-opacity="0.93" stroke-width="0.3"><path d="
M 1527.00 508.00 
C 1523.00 508.00 1519.00 508.00 1515.00 508.00
C 1514.56 519.34 1515.59 528.43 1515.00 540.00 C 1514.41 551.57 1516.14 559.61 1515.00 572.00 C 1513.86 584.39 1528.87 583.22 1527.00 571.00 C 1525.13 558.78 1528.00 550.40 1527.00 539.00 C 1526.00 527.60 1527.75 519.14 1527.00 508.00 Z"/>
</g>
<g fill="None" fill-opacity="0.0" stroke="#2B33BF" stroke-opacity="0.93" stroke-width="0.3"><path d="
M 1625.00 508.00 
C 1618.14 506.89 1608.38 507.90 1602.01 509.01 C 1595.63 510.12 1590.90 512.72 1587.98 518.98 C 1585.05 525.23 1586.42 533.70 1586.00 541.00 C 1585.58 548.30 1586.72 557.61 1586.00 565.00 C 1585.28 572.39 1584.95 583.24 1593.99 580.99 C 1603.03 578.75 1596.61 567.88 1598.00 561.00 C 1599.39 554.12 1597.55 543.64 1598.00 537.00 C 1598.45 530.36 1597.79 522.04 1604.93 519.93 C 1612.07 517.81 1617.96 516.82 1624.75 520.25 C 1631.54 523.68 1629.63 532.27 1630.00 539.00 C 1630.37 545.73 1629.36 555.94 1630.00 563.00 C 1630.64 570.06 1626.35 581.09 1636.00 581.00 C 1645.65 580.90 1641.37 570.31 1642.00 563.00 C 1642.63 555.69 1641.63 546.18 1642.00 539.00 C 1642.37 531.82 1642.45 523.44 1639.30 517.70 C 1636.15 511.96 1630.67 508.92 1625.00 508.00 Z"/>
</g>
<g fill="None" fill-opacity="0.0" stroke="#000000" stroke-opacity="0.00" stroke-width="0.3"><path d="
M 885.00 518.00 
C 869.93 515.55 862.17 526.37 863.00 540.00 C 863.83 553.63 861.00 565.89 876.00 570.00 C 891.00 574.11 898.91 560.08 898.00 548.00 C 897.09 535.92 899.06 520.28 885.00 518.00 Z"/>
</g>
<g fill="None" fill-opacity="0.0" stroke="#000000" stroke-opacity="0.00" stroke-width="0.3"><path d="
M 661.00 539.00 
C 670.30 539.07 684.39 541.40 684.65 528.69 C 684.90 515.99 669.96 519.13 661.00 519.00
C 661.00 525.67 661.00 532.33 661.00 539.00 Z"/>
</g>
<g fill="None" fill-opacity="0.0" stroke="#000000" stroke-opacity="0.00" stroke-width="0.3"><path d="
M 1428.00 519.00 
C 1423.02 529.76 1420.75 542.46 1417.00 554.00
C 1424.00 554.00 1431.00 554.00 1438.00 554.00
C 1435.47 542.09 1431.74 530.55 1428.00 519.00 Z"/>
</g>
<g fill="None" fill-opacity="0.0" stroke="#000000" stroke-opacity="0.00" stroke-width="0.3"><path d="
M 661.00 570.00 
C 670.78 570.01 687.28 572.98 686.99 559.01 C 686.70 545.04 670.69 548.11 661.00 548.00
C 661.00 555.33 661.00 562.67 661.00 570.00 Z"/>
</g>
<g fill="#000000" fill-opacity="0.00" stroke="None">
<path d="
M 0.00 613.00 
L 1667.00 613.00
L 1667.00 0.00
L 0.00 0.00
L 0.00 613.00
M 223.00 176.00 
C 215.64 180.24 208.11 184.59 200.77 188.77 C 193.43 192.95 185.35 198.27 177.92 201.92 C 170.49 205.57 163.35 212.34 155.77 214.77 C 148.19 217.20 140.75 227.79 133.00 228.00
C 137.11 232.95 134.98 243.92 142.70 246.30 C 150.42 248.69 153.91 253.31 160.69 256.31 C 167.48 259.30 172.56 263.91 179.08 266.92 C 185.59 269.94 190.45 274.08 196.75 277.25 C 203.04 280.43 209.05 284.41 215.23 287.77 C 221.41 291.13 226.90 294.57 233.08 297.92 C 239.27 301.26 245.39 305.66 252.00 308.00
C 252.00 344.33 252.00 380.67 252.00 417.00
C 173.73 373.59 94.38 331.34 17.00 287.00
C 13.40 280.80 16.86 270.53 16.00 263.00 C 15.14 255.47 16.16 245.74 16.00 238.00 C 15.84 230.26 15.56 220.54 16.00 213.00 C 16.44 205.46 14.66 194.83 16.00 188.00 C 17.34 181.17 12.40 168.42 17.00 164.00
C 25.49 154.51 40.89 151.95 51.08 144.08 C 61.26 136.20 74.15 131.09 85.08 124.08 C 96.01 117.06 107.88 110.85 119.08 104.08 C 130.27 97.30 141.84 90.88 153.08 84.08 C 164.32 77.28 175.89 71.03 187.23 64.23 C 198.56 57.42 210.51 50.68 222.00 44.00
C 232.78 37.73 241.63 33.78 252.23 26.23 C 262.83 18.68 271.83 27.56 282.23 33.77 C 292.63 39.98 303.08 45.43 313.23 51.77 C 323.38 58.11 333.59 63.05 343.70 69.30 C 353.80 75.56 364.67 80.97 374.00 88.00
C 323.74 117.56 273.19 146.35 223.00 176.00
M 504.00 163.00 
C 509.00 169.93 503.46 182.97 505.00 192.00 C 506.54 201.03 504.28 213.36 505.00 223.00 C 505.72 232.64 504.69 243.06 505.00 253.00 C 505.31 262.94 504.85 273.93 505.00 284.00 C 505.15 294.07 504.94 303.86 505.00 314.00 C 505.06 324.14 504.97 334.83 505.00 345.00 C 505.03 355.17 504.99 364.79 505.00 375.00 C 505.01 385.21 504.99 395.73 505.00 406.00 C 505.01 416.27 504.99 426.71 505.00 437.00
C 491.52 443.16 479.28 452.17 466.00 459.00
C 456.47 464.54 446.67 470.38 437.00 476.00
C 421.56 484.97 406.32 495.52 390.00 503.00
C 391.45 412.95 390.94 322.40 391.00 232.00
C 384.80 232.71 376.60 226.99 370.77 232.77 C 364.94 238.55 358.74 238.44 352.77 242.77 C 346.80 247.10 340.77 249.09 334.77 252.77 C 328.77 256.46 322.76 259.41 316.77 262.77 C 310.78 266.13 305.24 269.09 299.30 272.30 C 293.37 275.52 287.28 279.42 281.25 282.25 C 275.22 285.09 269.36 290.05 263.25 292.25 C 257.15 294.46 250.82 286.05 244.92 284.08 C 239.01 282.11 233.56 277.18 227.75 274.25 C 221.95 271.31 215.06 268.15 209.31 264.69 C 203.55 261.24 197.28 257.94 191.31 254.69 C 185.33 251.45 179.50 247.64 173.31 244.70 C 167.11 241.75 161.73 236.78 155.00 235.00
C 164.37 226.65 177.39 220.66 188.75 213.75 C 200.10 206.83 212.15 200.44 223.70 193.70 C 235.24 186.95 246.62 179.98 258.23 173.23 C 269.84 166.48 282.23 159.66 293.75 152.75 C 305.26 145.83 317.09 139.28 328.70 132.70 C 340.30 126.11 351.61 118.49 363.23 112.23 C 374.85 105.97 387.41 93.52 399.23 101.77 C 411.05 110.02 422.03 114.77 433.75 122.25 C 445.47 129.74 456.95 135.16 468.70 142.30 C 480.44 149.45 492.04 156.24 504.00 163.00
M 1270.00 176.00 
C 1270.00 193.67 1269.99 211.33 1270.00 229.00
C 1250.87 224.64 1231.47 223.34 1212.00 220.00 C 1192.53 216.66 1170.43 216.37 1150.78 214.22 C 1131.13 212.07 1104.69 216.73 1086.99 216.99 C 1069.30 217.26 1046.58 233.28 1062.25 246.75 C 1077.92 260.22 1096.29 256.06 1114.01 261.99 C 1131.72 267.93 1151.22 269.09 1169.02 273.98 C 1186.82 278.86 1206.50 281.47 1224.01 285.99 C 1241.51 290.51 1256.71 296.01 1271.25 306.75 C 1285.78 317.50 1292.65 334.23 1293.00 352.00 C 1293.35 369.77 1287.84 388.14 1274.75 400.75 C 1261.66 413.37 1250.37 420.26 1232.78 425.78 C 1215.18 431.29 1194.86 434.26 1175.00 435.00 C 1155.14 435.74 1128.93 434.91 1109.00 434.00 C 1089.07 433.09 1068.70 430.01 1049.78 426.22 C 1030.86 422.43 1013.97 418.26 996.00 412.00
C 996.00 393.33 996.00 374.67 996.00 356.00
C 1013.28 360.42 1028.29 365.07 1046.01 368.99 C 1063.72 372.91 1081.15 376.40 1100.00 378.00 C 1118.85 379.60 1140.08 382.28 1160.00 381.00 C 1179.92 379.72 1196.00 379.77 1214.70 371.69 C 1233.39 363.62 1226.24 342.30 1207.78 340.22 C 1189.31 338.14 1173.55 332.38 1155.98 329.02 C 1138.40 325.67 1121.10 321.73 1103.99 318.01 C 1086.88 314.28 1068.39 310.42 1051.98 306.02 C 1035.57 301.63 1021.92 297.06 1008.75 286.25 C 995.59 275.43 989.64 259.64 989.00 243.00 C 988.36 226.36 993.97 209.08 1005.75 196.75 C 1017.53 184.42 1029.78 178.15 1046.02 173.02 C 1062.27 167.89 1079.87 163.47 1098.01 162.01 C 1116.15 160.55 1139.98 158.93 1159.00 160.00 C 1178.02 161.07 1198.45 162.57 1217.00 165.00 C 1235.55 167.43 1252.02 171.83 1270.00 176.00
M 911.00 293.00 
C 931.08 306.83 946.84 323.59 949.78 349.22 C 952.72 374.85 945.12 401.49 921.30 416.30 C 897.49 431.11 871.13 433.20 841.00 432.00 C 810.87 430.80 776.03 432.62 745.00 432.00 C 713.98 431.38 680.27 432.47 649.00 432.00
C 649.00 342.33 649.00 252.67 649.00 163.00
C 678.24 162.88 710.01 163.16 739.00 163.00 C 767.99 162.84 802.02 163.31 830.00 163.00 C 857.98 162.69 883.74 165.37 906.70 177.31 C 929.65 189.24 939.26 209.18 941.98 233.02 C 944.69 256.86 932.56 282.10 911.00 293.00
M 1482.00 375.00 
C 1489.48 363.63 1495.35 350.99 1501.92 338.92 C 1508.50 326.86 1515.17 314.83 1521.77 302.77 C 1528.37 290.71 1534.29 278.17 1541.30 266.30 C 1548.32 254.44 1553.51 241.55 1560.92 229.92 C 1568.32 218.29 1572.28 204.56 1580.31 193.31 C 1588.33 182.05 1589.38 162.65 1606.00 163.00 C 1622.62 163.35 1644.87 162.74 1662.00 163.00
C 1646.35 196.15 1628.00 229.37 1611.08 262.08 C 1594.15 294.78 1575.20 328.08 1558.70 360.70 C 1542.19 393.31 1524.84 434.99 1482.00 435.00 C 1439.16 435.01 1422.46 393.76 1405.70 361.30 C 1388.93 328.85 1370.60 295.10 1353.70 262.31 C 1336.79 229.51 1317.42 196.41 1302.00 163.00
C 1319.13 162.71 1341.38 163.39 1358.00 163.00 C 1374.62 162.61 1375.91 181.87 1383.77 193.23 C 1391.63 204.59 1396.13 217.92 1403.31 229.70 C 1410.48 241.47 1416.24 254.05 1422.92 266.08 C 1429.61 278.11 1436.15 290.17 1442.77 302.23 C 1449.40 314.29 1455.49 326.73 1462.30 338.70 C 1469.12 350.67 1474.89 363.18 1482.00 375.00
M 260.00 579.00 
C 247.68 576.48 237.46 564.54 225.77 559.23 C 214.08 553.92 202.46 545.29 190.92 539.08 C 179.39 532.86 167.86 525.08 156.31 518.70 C 144.75 512.31 133.28 504.72 121.77 498.23 C 110.26 491.74 98.41 484.70 87.25 477.75 C 76.10 470.79 63.07 465.17 52.75 457.25 C 42.44 449.32 26.66 446.64 18.00 437.00
C 13.62 432.12 16.62 423.86 16.00 417.00 C 15.38 410.14 16.26 401.10 16.00 394.00 C 15.74 386.90 16.03 379.09 16.00 372.00 C 15.97 364.91 15.85 355.81 16.00 349.00 C 16.15 342.19 15.54 332.99 16.00 327.00 C 16.46 321.01 14.07 308.18 18.00 308.00
C 27.29 307.57 35.79 319.35 44.75 322.25 C 53.71 325.16 62.75 333.29 71.70 337.30 C 80.64 341.31 89.12 347.45 98.08 351.92 C 107.04 356.39 116.08 362.38 125.08 366.92 C 134.08 371.46 142.27 377.07 151.25 381.75 C 160.22 386.43 169.41 391.73 178.25 396.75 C 187.08 401.78 195.92 406.12 204.75 411.25 C 213.57 416.39 222.79 421.20 231.70 426.30 C 240.60 431.40 249.91 436.44 259.00 441.00
C 261.31 433.27 271.49 431.17 269.00 421.00 C 266.51 410.83 270.20 400.08 269.00 390.00 C 267.80 379.92 269.63 369.91 269.00 360.00 C 268.37 350.09 269.51 338.59 269.00 329.00 C 268.49 319.41 267.09 308.06 275.70 304.70 C 284.30 301.33 287.53 297.45 295.08 294.08 C 302.62 290.70 307.98 286.43 315.08 283.08 C 322.17 279.72 327.47 275.85 334.25 272.25 C 341.02 268.64 347.95 265.33 354.69 261.69 C 361.44 258.06 367.74 253.46 375.00 251.00
C 374.99 269.31 375.01 287.69 375.00 306.00 C 374.99 324.31 375.02 343.83 375.00 362.00 C 374.99 380.17 375.03 399.19 375.00 417.00 C 374.97 434.81 375.07 455.99 375.00 473.00 C 374.93 490.01 379.37 511.72 364.77 518.77 C 350.17 525.82 343.25 532.43 330.25 539.25 C 317.26 546.08 307.19 553.26 294.92 559.92 C 282.65 566.57 271.59 575.14 260.00 579.00
M 688.00 542.00 
C 693.50 545.74 697.85 550.88 698.00 558.00 C 698.15 565.12 697.84 573.59 691.30 577.30 C 684.77 581.01 676.37 581.52 669.00 581.00 C 661.63 580.48 649.45 584.37 649.00 575.00 C 648.56 565.62 649.73 558.26 649.00 549.00 C 648.27 539.74 650.51 532.53 649.00 523.00 C 647.49 513.47 650.00 505.92 660.00 508.00 C 670.00 510.08 676.83 506.19 685.02 508.98 C 693.22 511.76 694.59 516.97 695.99 524.01 C 697.40 531.05 694.81 539.60 688.00 542.00
M 768.00 508.00 
C 766.04 525.47 770.62 535.81 768.00 554.00 C 765.38 572.19 784.15 571.89 799.00 570.00
C 800.93 587.09 782.34 580.83 768.93 580.07 C 755.51 579.32 755.99 562.08 757.00 550.00 C 758.01 537.92 756.24 520.56 757.00 508.00
C 760.67 508.00 764.33 508.00 768.00 508.00
M 892.00 508.00 
C 907.15 510.46 909.47 529.53 909.98 542.02 C 910.48 554.51 908.37 575.53 894.32 579.32 C 880.27 583.11 861.36 583.47 855.08 568.92 C 848.80 554.38 850.33 538.34 853.78 522.78 C 857.23 507.22 878.22 505.76 892.00 508.00
M 1017.00 527.00 
C 1013.33 527.00 1009.67 527.00 1006.00 527.00
C 1006.70 516.45 992.11 517.67 984.00 519.00 C 975.89 520.33 979.11 538.13 979.00 545.00 C 978.89 551.87 975.81 569.01 985.03 569.97 C 994.24 570.94 1006.12 572.11 1007.00 561.00
C 1025.98 556.98 1014.94 583.30 1002.93 580.93 C 990.91 578.55 973.10 586.67 968.03 571.97 C 962.95 557.27 970.30 543.99 967.00 528.00 C 963.70 512.01 977.33 506.84 991.00 508.00 C 1004.67 509.16 1020.93 507.60 1017.00 527.00
M 1088.00 508.00 
C 1088.00 518.33 1088.00 528.67 1088.00 539.00
C 1105.91 542.59 1105.46 518.72 1113.00 508.00
C 1117.00 508.00 1121.00 508.00 1125.00 508.00
C 1125.31 520.95 1110.26 531.45 1110.03 544.03 C 1109.79 556.60 1125.74 567.92 1125.00 581.00
C 1101.19 586.93 1111.27 544.21 1088.00 549.00
C 1089.05 558.30 1086.60 564.37 1088.00 574.00 C 1089.40 583.63 1075.08 583.56 1076.00 574.00 C 1076.92 564.43 1075.85 557.21 1076.00 548.00 C 1076.15 538.79 1076.52 531.21 1076.00 522.00 C 1075.48 512.79 1075.85 504.49 1088.00 508.00
M 1230.00 527.00 
C 1217.16 529.29 1219.80 519.68 1208.00 519.00 C 1196.20 518.32 1190.39 520.23 1191.00 532.00 C 1191.61 543.77 1191.94 551.50 1191.00 562.00 C 1190.06 572.50 1207.74 572.21 1213.00 570.00 C 1218.26 567.79 1226.89 554.39 1229.99 565.01 C 1233.09 575.63 1223.64 579.73 1215.93 580.93 C 1208.21 582.12 1195.97 581.66 1187.78 579.22 C 1179.59 576.78 1178.49 566.12 1179.00 558.00 C 1179.51 549.88 1179.02 535.89 1179.00 528.00 C 1178.98 520.11 1180.09 509.80 1189.23 508.23 C 1198.36 506.65 1209.88 507.98 1219.00 508.00 C 1228.12 508.02 1230.77 520.18 1230.00 527.00
M 1299.00 508.00 
C 1299.00 518.33 1299.00 528.67 1299.00 539.00
C 1308.67 539.00 1318.33 539.00 1328.00 539.00
C 1330.35 527.80 1320.41 503.10 1340.00 508.00
C 1340.00 532.33 1340.00 556.67 1340.00 581.00
C 1320.12 585.84 1330.53 560.36 1328.00 549.00
C 1318.33 549.00 1308.67 549.00 1299.00 549.00
C 1300.03 558.32 1297.63 564.36 1299.00 574.00 C 1300.37 583.64 1285.88 583.62 1287.00 574.00 C 1288.12 564.38 1286.76 557.23 1287.00 548.00 C 1287.24 538.77 1287.47 531.22 1287.00 522.00 C 1286.53 512.78 1286.81 504.50 1299.00 508.00
M 1458.00 581.00 
C 1445.76 584.80 1442.92 573.18 1442.00 564.00
C 1432.67 564.00 1423.33 564.00 1414.00 564.00
C 1412.85 570.67 1409.99 583.73 1401.00 581.00 C 1392.01 578.27 1401.65 567.35 1402.32 560.32 C 1403.00 553.29 1407.93 544.61 1409.32 537.32 C 1410.72 530.03 1414.80 521.33 1415.99 513.99 C 1417.18 506.66 1433.73 504.40 1437.75 510.25 C 1441.76 516.11 1442.18 526.06 1444.93 533.07 C 1447.68 540.09 1449.57 548.50 1451.93 556.07 C 1454.28 563.65 1457.35 572.80 1458.00 581.00
M 1527.00 508.00 
C 1527.75 519.14 1526.00 527.60 1527.00 539.00 C 1528.00 550.40 1525.13 558.78 1527.00 571.00 C 1528.87 583.22 1513.86 584.39 1515.00 572.00 C 1516.14 559.61 1514.41 551.57 1515.00 540.00 C 1515.59 528.43 1514.56 519.34 1515.00 508.00
C 1519.00 508.00 1523.00 508.00 1527.00 508.00
M 1625.00 508.00 
C 1630.67 508.92 1636.15 511.96 1639.30 517.70 C 1642.45 523.44 1642.37 531.82 1642.00 539.00 C 1641.63 546.18 1642.63 555.69 1642.00 563.00 C 1641.37 570.31 1645.65 580.90 1636.00 581.00 C 1626.35 581.09 1630.64 570.06 1630.00 563.00 C 1629.36 555.94 1630.37 545.73 1630.00 539.00 C 1629.63 532.27 1631.54 523.68 1624.75 520.25 C 1617.96 516.82 1612.07 517.81 1604.93 519.93 C 1597.79 522.04 1598.45 530.36 1598.00 537.00 C 1597.55 543.64 1599.39 554.12 1598.00 561.00 C 1596.61 567.88 1603.03 578.75 1593.99 580.99 C 1584.95 583.24 1585.28 572.39 1586.00 565.00 C 1586.72 557.61 1585.58 548.30 1586.00 541.00 C 1586.42 533.70 1585.05 525.23 1587.98 518.98 C 1590.90 512.72 1595.63 510.12 1602.01 509.01 C 1608.38 507.90 1618.14 506.89 1625.00 508.00 Z"/>
</g>
<g fill="#334EC0" fill-opacity="0.99" stroke="None">
<path d="
M 222.00 44.00 
C 223.83 52.08 222.96 60.42 223.00 69.00 C 223.04 77.58 223.24 87.39 223.00 96.00 C 222.76 104.61 223.72 113.53 223.00 122.00 C 222.28 130.47 224.60 140.88 223.00 149.00 C 221.40 157.12 226.55 168.82 223.00 176.00
C 273.19 146.35 323.74 117.56 374.00 88.00
C 364.67 80.97 353.80 75.56 343.70 69.30 C 333.59 63.05 323.38 58.11 313.23 51.77 C 303.08 45.43 292.63 39.98 282.23 33.77 C 271.83 27.56 262.83 18.68 252.23 26.23 C 241.63 33.78 232.78 37.73 222.00 44.00 Z"/>
</g>
<g fill="#335FC0" fill-opacity="0.99" stroke="None">
<path d="
M 17.00 164.00 
C 16.75 164.28 17.00 165.00 17.00 165.00
C 24.54 169.33 32.20 172.89 39.70 177.30 C 47.19 181.72 55.62 185.49 63.08 189.92 C 70.53 194.35 79.08 198.07 86.23 202.77 C 93.38 207.47 103.20 210.04 109.69 215.31 C 116.19 220.57 127.86 221.80 133.00 228.00
C 140.75 227.79 148.19 217.20 155.77 214.77 C 163.35 212.34 170.49 205.57 177.92 201.92 C 185.35 198.27 193.43 192.95 200.77 188.77 C 208.11 184.59 215.64 180.24 223.00 176.00
C 226.55 168.82 221.40 157.12 223.00 149.00 C 224.60 140.88 222.28 130.47 223.00 122.00 C 223.72 113.53 222.76 104.61 223.00 96.00 C 223.24 87.39 223.04 77.58 223.00 69.00 C 222.96 60.42 223.83 52.08 222.00 44.00
C 210.51 50.68 198.56 57.42 187.23 64.23 C 175.89 71.03 164.32 77.28 153.08 84.08 C 141.84 90.88 130.27 97.30 119.08 104.08 C 107.88 110.85 96.01 117.06 85.08 124.08 C 74.15 131.09 61.26 136.20 51.08 144.08 C 40.89 151.95 25.49 154.51 17.00 164.00 Z"/>
</g>
<g fill="#332AC0" fill-opacity="0.99" stroke="None">
<path d="
M 391.00 232.00 
C 396.08 231.42 401.10 225.09 406.08 223.08 C 411.05 221.06 416.31 217.05 421.08 214.08 C 425.84 211.10 432.30 207.94 437.00 205.00
C 446.02 199.36 455.94 193.67 465.00 188.00
C 477.84 179.97 491.74 171.91 504.00 163.00
C 492.04 156.24 480.44 149.45 468.70 142.30 C 456.95 135.16 445.47 129.74 433.75 122.25 C 422.03 114.77 411.05 110.02 399.23 101.77 C 387.41 93.52 374.85 105.97 363.23 112.23 C 351.61 118.49 340.30 126.11 328.70 132.70 C 317.09 139.28 305.26 145.83 293.75 152.75 C 282.23 159.66 269.84 166.48 258.23 173.23 C 246.62 179.98 235.24 186.95 223.70 193.70 C 212.15 200.44 200.10 206.83 188.75 213.75 C 177.39 220.66 164.37 226.65 155.00 235.00
C 161.73 236.78 167.11 241.75 173.31 244.70 C 179.50 247.64 185.33 251.45 191.31 254.69 C 197.28 257.94 203.55 261.24 209.31 264.69 C 215.06 268.15 221.95 271.31 227.75 274.25 C 233.56 277.18 239.01 282.11 244.92 284.08 C 250.82 286.05 257.15 294.46 263.25 292.25 C 269.36 290.05 275.22 285.09 281.25 282.25 C 287.28 279.42 293.37 275.52 299.30 272.30 C 305.24 269.09 310.78 266.13 316.77 262.77 C 322.76 259.41 328.77 256.46 334.77 252.77 C 340.77 249.09 346.80 247.10 352.77 242.77 C 358.74 238.44 364.94 238.55 370.77 232.77 C 376.60 226.99 384.80 232.71 391.00 232.00 Z"/>
</g>
<g fill="#2B33BF" fill-opacity="0.98" stroke="None">
<path d="
M 1270.00 176.00 
C 1252.02 171.83 1235.55 167.43 1217.00 165.00 C 1198.45 162.57 1178.02 161.07 1159.00 160.00 C 1139.98 158.93 1116.15 160.55 1098.01 162.01 C 1079.87 163.47 1062.27 167.89 1046.02 173.02 C 1029.78 178.15 1017.53 184.42 1005.75 196.75 C 993.97 209.08 988.36 226.36 989.00 243.00 C 989.64 259.64 995.59 275.43 1008.75 286.25 C 1021.92 297.06 1035.57 301.63 1051.98 306.02 C 1068.39 310.42 1086.88 314.28 1103.99 318.01 C 1121.10 321.73 1138.40 325.67 1155.98 329.02 C 1173.55 332.38 1189.31 338.14 1207.78 340.22 C 1226.24 342.30 1233.39 363.62 1214.70 371.69 C 1196.00 379.77 1179.92 379.72 1160.00 381.00 C 1140.08 382.28 1118.85 379.60 1100.00 378.00 C 1081.15 376.40 1063.72 372.91 1046.01 368.99 C 1028.29 365.07 1013.28 360.42 996.00 356.00
C 996.00 374.67 996.00 393.33 996.00 412.00
C 1013.97 418.26 1030.86 422.43 1049.78 426.22 C 1068.70 430.01 1089.07 433.09 1109.00 434.00 C 1128.93 434.91 1155.14 435.74 1175.00 435.00 C 1194.86 434.26 1215.18 431.29 1232.78 425.78 C 1250.37 420.26 1261.66 413.37 1274.75 400.75 C 1287.84 388.14 1293.35 369.77 1293.00 352.00 C 1292.65 334.23 1285.78 317.50 1271.25 306.75 C 1256.71 296.01 1241.51 290.51 1224.01 285.99 C 1206.50 281.47 1186.82 278.86 1169.02 273.98 C 1151.22 269.09 1131.72 267.93 1114.01 261.99 C 1096.29 256.06 1077.92 260.22 1062.25 246.75 C 1046.58 233.28 1069.30 217.26 1086.99 216.99 C 1104.69 216.73 1131.13 212.07 1150.78 214.22 C 1170.43 216.37 1192.53 216.66 1212.00 220.00 C 1231.47 223.34 1250.87 224.64 1270.00 229.00
C 1269.99 211.33 1270.00 193.67 1270.00 176.00 Z"/>
</g>
<g fill="#3349C0" fill-opacity="0.98" stroke="None">
<path d="
M 465.00 188.00 
C 463.19 193.99 467.39 203.46 466.00 211.00 C 464.61 218.54 466.63 228.02 466.00 236.00 C 465.37 243.98 466.28 252.83 466.00 261.00 C 465.72 269.17 466.13 277.74 466.00 286.00 C 465.87 294.26 466.06 302.71 466.00 311.00 C 465.94 319.29 466.02 327.70 466.00 336.00 C 465.98 344.30 466.01 352.70 466.00 361.00 C 465.99 369.30 465.99 377.74 466.00 386.00 C 466.01 394.26 465.97 402.82 466.00 411.00 C 466.03 419.18 465.94 428.01 466.00 436.00 C 466.06 443.99 465.84 452.25 466.00 459.00
C 479.28 452.17 491.52 443.16 505.00 437.00
C 504.99 426.71 505.01 416.27 505.00 406.00 C 504.99 395.73 505.01 385.21 505.00 375.00 C 504.99 364.79 505.03 355.17 505.00 345.00 C 504.97 334.83 505.06 324.14 505.00 314.00 C 504.94 303.86 505.15 294.07 505.00 284.00 C 504.85 273.93 505.31 262.94 505.00 253.00 C 504.69 243.06 505.72 232.64 505.00 223.00 C 504.28 213.36 506.54 201.03 505.00 192.00 C 503.46 182.97 509.00 169.93 504.00 163.00
C 491.74 171.91 477.84 179.97 465.00 188.00 Z"/>
</g>
<g fill="#2B33BF" fill-opacity="0.98" stroke="None">
<path d="
M 911.00 293.00 
C 932.56 282.10 944.69 256.86 941.98 233.02 C 939.26 209.18 929.65 189.24 906.70 177.31 C 883.74 165.37 857.98 162.69 830.00 163.00 C 802.02 163.31 767.99 162.84 739.00 163.00 C 710.01 163.16 678.24 162.88 649.00 163.00
C 649.00 252.67 649.00 342.33 649.00 432.00
C 680.27 432.47 713.98 431.38 745.00 432.00 C 776.03 432.62 810.87 430.80 841.00 432.00 C 871.13 433.20 897.49 431.11 921.30 416.30 C 945.12 401.49 952.72 374.85 949.78 349.22 C 946.84 323.59 931.08 306.83 911.00 293.00
M 708.00 271.00 
C 708.00 252.00 708.00 233.00 708.00 214.00
C 729.98 213.70 753.14 214.40 775.00 214.00 C 796.86 213.60 821.67 214.76 843.00 214.00 C 864.33 213.24 880.15 218.42 882.00 242.00 C 883.85 265.58 865.02 273.91 843.00 271.00 C 820.98 268.09 798.28 272.50 776.00 271.00 C 753.72 269.50 730.37 272.12 708.00 271.00
M 708.00 382.00 
C 708.00 361.67 708.00 341.33 708.00 321.00
C 730.90 320.49 756.36 321.68 779.00 321.00 C 801.64 320.32 828.30 322.30 850.00 321.00 C 871.70 319.70 889.35 327.82 890.99 351.01 C 892.63 374.19 873.06 384.45 851.00 382.00 C 828.94 379.55 802.94 383.26 780.00 382.00 C 757.06 380.74 731.21 382.95 708.00 382.00 Z"/>
</g>
<g fill="#2B34C0" fill-opacity="0.98" stroke="None">
<path d="
M 1482.00 375.00 
C 1474.89 363.18 1469.12 350.67 1462.30 338.70 C 1455.49 326.73 1449.40 314.29 1442.77 302.23 C 1436.15 290.17 1429.61 278.11 1422.92 266.08 C 1416.24 254.05 1410.48 241.47 1403.31 229.70 C 1396.13 217.92 1391.63 204.59 1383.77 193.23 C 1375.91 181.87 1374.62 162.61 1358.00 163.00 C 1341.38 163.39 1319.13 162.71 1302.00 163.00
C 1317.42 196.41 1336.79 229.51 1353.70 262.31 C 1370.60 295.10 1388.93 328.85 1405.70 361.30 C 1422.46 393.76 1439.16 435.01 1482.00 435.00 C 1524.84 434.99 1542.19 393.31 1558.70 360.70 C 1575.20 328.08 1594.15 294.78 1611.08 262.08 C 1628.00 229.37 1646.35 196.15 1662.00 163.00
C 1644.87 162.74 1622.62 163.35 1606.00 163.00 C 1589.38 162.65 1588.33 182.05 1580.31 193.31 C 1572.28 204.56 1568.32 218.29 1560.92 229.92 C 1553.51 241.55 1548.32 254.44 1541.30 266.30 C 1534.29 278.17 1528.37 290.71 1521.77 302.77 C 1515.17 314.83 1508.50 326.86 1501.92 338.92 C 1495.35 350.99 1489.48 363.63 1482.00 375.00 Z"/>
</g>
<g fill="#343078" fill-opacity="0.25" stroke="None">
<path d="
M 17.00 287.00 
C 13.59 278.22 18.48 266.57 17.00 257.00 C 15.52 247.43 17.67 235.89 17.00 226.00 C 16.33 216.11 17.24 206.05 17.00 196.00 C 16.76 185.95 17.00 175.12 17.00 165.00
C 17.00 165.00 16.75 164.28 17.00 164.00
C 12.40 168.42 17.34 181.17 16.00 188.00 C 14.66 194.83 16.44 205.46 16.00 213.00 C 15.56 220.54 15.84 230.26 16.00 238.00 C 16.16 245.74 15.14 255.47 16.00 263.00 C 16.86 270.53 13.40 280.80 17.00 287.00 Z"/>
</g>
<g fill="#313178" fill-opacity="0.99" stroke="None">
<path d="
M 17.00 287.00 
C 94.38 331.34 173.73 373.59 252.00 417.00
C 252.00 380.67 252.00 344.33 252.00 308.00
C 245.39 305.66 239.27 301.26 233.08 297.92 C 226.90 294.57 221.41 291.13 215.23 287.77 C 209.05 284.41 203.04 280.43 196.75 277.25 C 190.45 274.08 185.59 269.94 179.08 266.92 C 172.56 263.91 167.48 259.30 160.69 256.31 C 153.91 253.31 150.42 248.69 142.70 246.30 C 134.98 243.92 137.11 232.95 133.00 228.00
C 127.86 221.80 116.19 220.57 109.69 215.31 C 103.20 210.04 93.38 207.47 86.23 202.77 C 79.08 198.07 70.53 194.35 63.08 189.92 C 55.62 185.49 47.19 181.72 39.70 177.30 C 32.20 172.89 24.54 169.33 17.00 165.00
C 17.00 175.12 16.76 185.95 17.00 196.00 C 17.24 206.05 16.33 216.11 17.00 226.00 C 17.67 235.89 15.52 247.43 17.00 257.00 C 18.48 266.57 13.59 278.22 17.00 287.00 Z"/>
</g>
<g fill="#3357C0" fill-opacity="1.00" stroke="None">
<path d="
M 437.00 205.00 
C 433.18 214.85 438.72 228.34 437.00 239.00 C 435.28 249.66 437.78 261.97 437.00 273.00 C 436.22 284.03 437.35 295.81 437.00 307.00 C 436.65 318.19 437.16 329.75 437.00 341.00 C 436.84 352.25 437.06 363.74 437.00 375.00 C 436.94 386.26 437.02 397.78 437.00 409.00 C 436.98 420.22 436.98 431.90 437.00 443.00 C 437.02 454.10 436.93 466.08 437.00 476.00
C 446.67 470.38 456.47 464.54 466.00 459.00
C 465.84 452.25 466.06 443.99 466.00 436.00 C 465.94 428.01 466.03 419.18 466.00 411.00 C 465.97 402.82 466.01 394.26 466.00 386.00 C 465.99 377.74 465.99 369.30 466.00 361.00 C 466.01 352.70 465.98 344.30 466.00 336.00 C 466.02 327.70 465.94 319.29 466.00 311.00 C 466.06 302.71 465.87 294.26 466.00 286.00 C 466.13 277.74 465.72 269.17 466.00 261.00 C 466.28 252.83 465.37 243.98 466.00 236.00 C 466.63 228.02 464.61 218.54 466.00 211.00 C 467.39 203.46 463.19 193.99 465.00 188.00
C 455.94 193.67 446.02 199.36 437.00 205.00 Z"/>
</g>
<g fill="#3366C0" fill-opacity="1.00" stroke="None">
<path d="
M 391.00 232.00 
C 390.94 322.40 391.45 412.95 390.00 503.00
C 406.32 495.52 421.56 484.97 437.00 476.00
C 436.93 466.08 437.02 454.10 437.00 443.00 C 436.98 431.90 436.98 420.22 437.00 409.00 C 437.02 397.78 436.94 386.26 437.00 375.00 C 437.06 363.74 436.84 352.25 437.00 341.00 C 437.16 329.75 436.65 318.19 437.00 307.00 C 437.35 295.81 436.22 284.03 437.00 273.00 C 437.78 261.97 435.28 249.66 437.00 239.00 C 438.72 228.34 433.18 214.85 437.00 205.00
C 432.30 207.94 425.84 211.10 421.08 214.08 C 416.31 217.05 411.05 221.06 406.08 223.08 C 401.10 225.09 396.08 231.42 391.00 232.00 Z"/>
</g>
<g fill="#000000" fill-opacity="0.00" stroke="None">
<path d="
M 708.00 271.00 
C 730.37 272.12 753.72 269.50 776.00 271.00 C 798.28 272.50 820.98 268.09 843.00 271.00 C 865.02 273.91 883.85 265.58 882.00 242.00 C 880.15 218.42 864.33 213.24 843.00 214.00 C 821.67 214.76 796.86 213.60 775.00 214.00 C 753.14 214.40 729.98 213.70 708.00 214.00
C 708.00 233.00 708.00 252.00 708.00 271.00 Z"/>
</g>
<g fill="#332AC0" fill-opacity="0.98" stroke="None">
<path d="
M 259.00 441.00 
C 257.17 447.11 259.96 454.63 259.00 461.00 C 258.04 467.37 259.29 473.92 259.93 480.07 C 260.56 486.23 259.71 493.73 260.00 500.00 C 260.29 506.27 259.75 513.88 260.00 520.00 C 260.25 526.12 259.62 534.39 260.00 540.00 C 260.38 545.61 262.46 554.01 261.00 559.00 C 259.54 563.99 264.16 576.57 260.00 579.00
C 271.59 575.14 282.65 566.57 294.92 559.92 C 307.19 553.26 317.26 546.08 330.25 539.25 C 343.25 532.43 350.17 525.82 364.77 518.77 C 379.37 511.72 374.93 490.01 375.00 473.00 C 375.07 455.99 374.97 434.81 375.00 417.00 C 375.03 399.19 374.99 380.17 375.00 362.00 C 375.02 343.83 374.99 324.31 375.00 306.00 C 375.01 287.69 374.99 269.31 375.00 251.00
C 367.74 253.46 361.44 258.06 354.69 261.69 C 347.95 265.33 341.02 268.64 334.25 272.25 C 327.47 275.85 322.17 279.72 315.08 283.08 C 307.98 286.43 302.62 290.70 295.08 294.08 C 287.53 297.45 284.30 301.33 275.70 304.70 C 267.09 308.06 268.49 319.41 269.00 329.00 C 269.51 338.59 268.37 350.09 269.00 360.00 C 269.63 369.91 267.80 379.92 269.00 390.00 C 270.20 400.08 266.51 410.83 269.00 421.00 C 271.49 431.17 261.31 433.27 259.00 441.00 Z"/>
</g>
<g fill="#34249D" fill-opacity="0.44" stroke="None">
<path d="
M 18.00 437.00 
C 14.52 431.55 17.81 423.54 17.00 417.00 C 16.19 410.46 17.28 401.84 17.00 395.00 C 16.72 388.16 16.92 379.82 17.00 373.00 C 17.08 366.18 16.52 357.44 17.00 351.00 C 17.48 344.56 15.79 334.48 17.00 329.00 C 18.21 323.52 13.79 310.58 18.00 308.00
C 14.07 308.18 16.46 321.01 16.00 327.00 C 15.54 332.99 16.15 342.19 16.00 349.00 C 15.85 355.81 15.97 364.91 16.00 372.00 C 16.03 379.09 15.74 386.90 16.00 394.00 C 16.26 401.10 15.38 410.14 16.00 417.00 C 16.62 423.86 13.62 432.12 18.00 437.00 Z"/>
</g>
<g fill="#322F7D" fill-opacity="0.99" stroke="None">
<path d="
M 18.00 437.00 
C 26.66 446.64 42.44 449.32 52.75 457.25 C 63.07 465.17 76.10 470.79 87.25 477.75 C 98.41 484.70 110.26 491.74 121.77 498.23 C 133.28 504.72 144.75 512.31 156.31 518.70 C 167.86 525.08 179.39 532.86 190.92 539.08 C 202.46 545.29 214.08 553.92 225.77 559.23 C 237.46 564.54 247.68 576.48 260.00 579.00
C 264.16 576.57 259.54 563.99 261.00 559.00 C 262.46 554.01 260.38 545.61 260.00 540.00 C 259.62 534.39 260.25 526.12 260.00 520.00 C 259.75 513.88 260.29 506.27 260.00 500.00 C 259.71 493.73 260.56 486.23 259.93 480.07 C 259.29 473.92 258.04 467.37 259.00 461.00 C 259.96 454.63 257.17 447.11 259.00 441.00
C 249.91 436.44 240.60 431.40 231.70 426.30 C 222.79 421.20 213.57 416.39 204.75 411.25 C 195.92 406.12 187.08 401.78 178.25 396.75 C 169.41 391.73 160.22 386.43 151.25 381.75 C 142.27 377.07 134.08 371.46 125.08 366.92 C 116.08 362.38 107.04 356.39 98.08 351.92 C 89.12 347.45 80.64 341.31 71.70 337.30 C 62.75 333.29 53.71 325.16 44.75 322.25 C 35.79 319.35 27.29 307.57 18.00 308.00
C 13.79 310.58 18.21 323.52 17.00 329.00 C 15.79 334.48 17.48 344.56 17.00 351.00 C 16.52 357.44 17.08 366.18 17.00 373.00 C 16.92 379.82 16.72 388.16 17.00 395.00 C 17.28 401.84 16.19 410.46 17.00 417.00 C 17.81 423.54 14.52 431.55 18.00 437.00 Z"/>
</g>
<g fill="#000000" fill-opacity="0.00" stroke="None">
<path d="
M 708.00 382.00 
C 731.21 382.95 757.06 380.74 780.00 382.00 C 802.94 383.26 828.94 379.55 851.00 382.00 C 873.06 384.45 892.63 374.19 890.99 351.01 C 889.35 327.82 871.70 319.70 850.00 321.00 C 828.30 322.30 801.64 320.32 779.00 321.00 C 756.36 321.68 730.90 320.49 708.00 321.00
C 708.00 341.33 708.00 361.67 708.00 382.00 Z"/>
</g>
<g fill="#2B33BF" fill-opacity="0.93" stroke="None">
<path d="
M 688.00 542.00 
C 694.81 539.60 697.40 531.05 695.99 524.01 C 694.59 516.97 693.22 511.76 685.02 508.98 C 676.83 506.19 670.00 510.08 660.00 508.00 C 650.00 505.92 647.49 513.47 649.00 523.00 C 650.51 532.53 648.27 539.74 649.00 549.00 C 649.73 558.26 648.56 565.62 649.00 575.00 C 649.45 584.37 661.63 580.48 669.00 581.00 C 676.37 581.52 684.77 581.01 691.30 577.30 C 697.84 573.59 698.15 565.12 698.00 558.00 C 697.85 550.88 693.50 545.74 688.00 542.00
M 661.00 539.00 
C 661.00 532.33 661.00 525.67 661.00 519.00
C 669.96 519.13 684.90 515.99 684.65 528.69 C 684.39 541.40 670.30 539.07 661.00 539.00
M 661.00 570.00 
C 661.00 562.67 661.00 555.33 661.00 548.00
C 670.69 548.11 686.70 545.04 686.99 559.01 C 687.28 572.98 670.78 570.01 661.00 570.00 Z"/>
</g>
<g fill="#2B34BF" fill-opacity="0.95" stroke="None">
<path d="
M 768.00 508.00 
C 764.33 508.00 760.67 508.00 757.00 508.00
C 756.24 520.56 758.01 537.92 757.00 550.00 C 755.99 562.08 755.51 579.32 768.93 580.07 C 782.34 580.83 800.93 587.09 799.00 570.00
C 784.15 571.89 765.38 572.19 768.00 554.00 C 770.62 535.81 766.04 525.47 768.00 508.00 Z"/>
</g>
<g fill="#2B33BF" fill-opacity="0.93" stroke="None">
<path d="
M 892.00 508.00 
C 878.22 505.76 857.23 507.22 853.78 522.78 C 850.33 538.34 848.80 554.38 855.08 568.92 C 861.36 583.47 880.27 583.11 894.32 579.32 C 908.37 575.53 910.48 554.51 909.98 542.02 C 909.47 529.53 907.15 510.46 892.00 508.00
M 885.00 518.00 
C 899.06 520.28 897.09 535.92 898.00 548.00 C 898.91 560.08 891.00 574.11 876.00 570.00 C 861.00 565.89 863.83 553.63 863.00 540.00 C 862.17 526.37 869.93 515.55 885.00 518.00 Z"/>
</g>
<g fill="#2B33BF" fill-opacity="0.92" stroke="None">
<path d="
M 1017.00 527.00 
C 1020.93 507.60 1004.67 509.16 991.00 508.00 C 977.33 506.84 963.70 512.01 967.00 528.00 C 970.30 543.99 962.95 557.27 968.03 571.97 C 973.10 586.67 990.91 578.55 1002.93 580.93 C 1014.94 583.30 1025.98 556.98 1007.00 561.00
C 1006.12 572.11 994.24 570.94 985.03 569.97 C 975.81 569.01 978.89 551.87 979.00 545.00 C 979.11 538.13 975.89 520.33 984.00 519.00 C 992.11 517.67 1006.70 516.45 1006.00 527.00
C 1009.67 527.00 1013.33 527.00 1017.00 527.00 Z"/>
</g>
<g fill="#2B34BF" fill-opacity="0.92" stroke="None">
<path d="
M 1088.00 508.00 
C 1075.85 504.49 1075.48 512.79 1076.00 522.00 C 1076.52 531.21 1076.15 538.79 1076.00 548.00 C 1075.85 557.21 1076.92 564.43 1076.00 574.00 C 1075.08 583.56 1089.40 583.63 1088.00 574.00 C 1086.60 564.37 1089.05 558.30 1088.00 549.00
C 1111.27 544.21 1101.19 586.93 1125.00 581.00
C 1125.74 567.92 1109.79 556.60 1110.03 544.03 C 1110.26 531.45 1125.31 520.95 1125.00 508.00
C 1121.00 508.00 1117.00 508.00 1113.00 508.00
C 1105.46 518.72 1105.91 542.59 1088.00 539.00
C 1088.00 528.67 1088.00 518.33 1088.00 508.00 Z"/>
</g>
<g fill="#2B33BF" fill-opacity="0.91" stroke="None">
<path d="
M 1230.00 527.00 
C 1230.77 520.18 1228.12 508.02 1219.00 508.00 C 1209.88 507.98 1198.36 506.65 1189.23 508.23 C 1180.09 509.80 1178.98 520.11 1179.00 528.00 C 1179.02 535.89 1179.51 549.88 1179.00 558.00 C 1178.49 566.12 1179.59 576.78 1187.78 579.22 C 1195.97 581.66 1208.21 582.12 1215.93 580.93 C 1223.64 579.73 1233.09 575.63 1229.99 565.01 C 1226.89 554.39 1218.26 567.79 1213.00 570.00 C 1207.74 572.21 1190.06 572.50 1191.00 562.00 C 1191.94 551.50 1191.61 543.77 1191.00 532.00 C 1190.39 520.23 1196.20 518.32 1208.00 519.00 C 1219.80 519.68 1217.16 529.29 1230.00 527.00 Z"/>
</g>
<g fill="#2B33BF" fill-opacity="0.94" stroke="None">
<path d="
M 1299.00 508.00 
C 1286.81 504.50 1286.53 512.78 1287.00 522.00 C 1287.47 531.22 1287.24 538.77 1287.00 548.00 C 1286.76 557.23 1288.12 564.38 1287.00 574.00 C 1285.88 583.62 1300.37 583.64 1299.00 574.00 C 1297.63 564.36 1300.03 558.32 1299.00 549.00
C 1308.67 549.00 1318.33 549.00 1328.00 549.00
C 1330.53 560.36 1320.12 585.84 1340.00 581.00
C 1340.00 556.67 1340.00 532.33 1340.00 508.00
C 1320.41 503.10 1330.35 527.80 1328.00 539.00
C 1318.33 539.00 1308.67 539.00 1299.00 539.00
C 1299.00 528.67 1299.00 518.33 1299.00 508.00 Z"/>
</g>
<g fill="#2B34BF" fill-opacity="0.93" stroke="None">
<path d="
M 1458.00 581.00 
C 1457.35 572.80 1454.28 563.65 1451.93 556.07 C 1449.57 548.50 1447.68 540.09 1444.93 533.07 C 1442.18 526.06 1441.76 516.11 1437.75 510.25 C 1433.73 504.40 1417.18 506.66 1415.99 513.99 C 1414.80 521.33 1410.72 530.03 1409.32 537.32 C 1407.93 544.61 1403.00 553.29 1402.32 560.32 C 1401.65 567.35 1392.01 578.27 1401.00 581.00 C 1409.99 583.73 1412.85 570.67 1414.00 564.00
C 1423.33 564.00 1432.67 564.00 1442.00 564.00
C 1442.92 573.18 1445.76 584.80 1458.00 581.00
M 1428.00 519.00 
C 1431.74 530.55 1435.47 542.09 1438.00 554.00
C 1431.00 554.00 1424.00 554.00 1417.00 554.00
C 1420.75 542.46 1423.02 529.76 1428.00 519.00 Z"/>
</g>
<g fill="#2B33BF" fill-opacity="0.93" stroke="None">
<path d="
M 1527.00 508.00 
C 1523.00 508.00 1519.00 508.00 1515.00 508.00
C 1514.56 519.34 1515.59 528.43 1515.00 540.00 C 1514.41 551.57 1516.14 559.61 1515.00 572.00 C 1513.86 584.39 1528.87 583.22 1527.00 571.00 C 1525.13 558.78 1528.00 550.40 1527.00 539.00 C 1526.00 527.60 1527.75 519.14 1527.00 508.00 Z"/>
</g>
<g fill="#2B33BF" fill-opacity="0.93" stroke="None">
<path d="
M 1625.00 508.00 
C 1618.14 506.89 1608.38 507.90 1602.01 509.01 C 1595.63 510.12 1590.90 512.72 1587.98 518.98 C 1585.05 525.23 1586.42 533.70 1586.00 541.00 C 1585.58 548.30 1586.72 557.61 1586.00 565.00 C 1585.28 572.39 1584.95 583.24 1593.99 580.99 C 1603.03 578.75 1596.61 567.88 1598.00 561.00 C 1599.39 554.12 1597.55 543.64 1598.00 537.00 C 1598.45 530.36 1597.79 522.04 1604.93 519.93 C 1612.07 517.81 1617.96 516.82 1624.75 520.25 C 1631.54 523.68 1629.63 532.27 1630.00 539.00 C 1630.37 545.73 1629.36 555.94 1630.00 563.00 C 1630.64 570.06 1626.35 581.09 1636.00 581.00 C 1645.65 580.90 1641.37 570.31 1642.00 563.00 C 1642.63 555.69 1641.63 546.18 1642.00 539.00 C 1642.37 531.82 1642.45 523.44 1639.30 517.70 C 1636.15 511.96 1630.67 508.92 1625.00 508.00 Z"/>
</g>
<g fill="#000000" fill-opacity="0.00" stroke="None">
<path d="
M 885.00 518.00 
C 869.93 515.55 862.17 526.37 863.00 540.00 C 863.83 553.63 861.00 565.89 876.00 570.00 C 891.00 574.11 898.91 560.08 898.00 548.00 C 897.09 535.92 899.06 520.28 885.00 518.00 Z"/>
</g>
<g fill="#000000" fill-opacity="0.00" stroke="None">
<path d="
M 661.00 539.00 
C 670.30 539.07 684.39 541.40 684.65 528.69 C 684.90 515.99 669.96 519.13 661.00 519.00
C 661.00 525.67 661.00 532.33 661.00 539.00 Z"/>
</g>
<g fill="#000000" fill-opacity="0.00" stroke="None">
<path d="
M 1428.00 519.00 
C 1423.02 529.76 1420.75 542.46 1417.00 554.00
C 1424.00 554.00 1431.00 554.00 1438.00 554.00
C 1435.47 542.09 1431.74 530.55 1428.00 519.00 Z"/>
</g>
<g fill="#000000" fill-opacity="0.00" stroke="None">
<path d="
M 661.00 570.00 
C 670.78 570.01 687.28 572.98 686.99 559.01 C 686.70 545.04 670.69 548.11 661.00 548.00
C 661.00 555.33 661.00 562.67 661.00 570.00 Z"/>
</g>
</svg>